<svg xmlns="http://www.w3.org/2000/svg" width="28.517" height="28.511" viewBox="0 0 28.517 28.511">
  <path id="Icon_awesome-instagram" data-name="Icon awesome-instagram" d="M14.256,9.183a7.31,7.31,0,1,0,7.31,7.31A7.3,7.3,0,0,0,14.256,9.183Zm0,12.062a4.752,4.752,0,1,1,4.752-4.752,4.761,4.761,0,0,1-4.752,4.752ZM23.57,8.884a1.7,1.7,0,1,1-1.7-1.7A1.7,1.7,0,0,1,23.57,8.884Zm4.841,1.73a8.437,8.437,0,0,0-2.3-5.974,8.493,8.493,0,0,0-5.974-2.3c-2.354-.134-9.409-.134-11.763,0A8.481,8.481,0,0,0,2.4,4.635a8.465,8.465,0,0,0-2.3,5.974c-.134,2.354-.134,9.409,0,11.763a8.437,8.437,0,0,0,2.3,5.974,8.5,8.5,0,0,0,5.974,2.3c2.354.134,9.409.134,11.763,0a8.437,8.437,0,0,0,5.974-2.3,8.493,8.493,0,0,0,2.3-5.974c.134-2.354.134-9.4,0-11.757ZM25.37,24.9a4.811,4.811,0,0,1-2.71,2.71c-1.877.744-6.33.573-8.4.573s-6.534.165-8.4-.573a4.811,4.811,0,0,1-2.71-2.71c-.744-1.877-.573-6.33-.573-8.4s-.165-6.534.573-8.4a4.811,4.811,0,0,1,2.71-2.71c1.877-.744,6.33-.573,8.4-.573s6.534-.165,8.4.573a4.811,4.811,0,0,1,2.71,2.71c.744,1.877.573,6.33.573,8.4S26.115,23.027,25.37,24.9Z" transform="translate(0.005 -2.238)"/>
</svg>
