<svg id="グループ_106" data-name="グループ 106" xmlns="http://www.w3.org/2000/svg" xmlns:xlink="http://www.w3.org/1999/xlink" width="791.037" height="144.735" viewBox="0 0 791.037 144.735">
  <defs>
    <clipPath id="clip-path">
      <rect id="長方形_200" data-name="長方形 200" width="791.037" height="144.735" fill="none"/>
    </clipPath>
  </defs>
  <g id="グループ_105" data-name="グループ 105" clip-path="url(#clip-path)">
    <path id="パス_8" data-name="パス 8" d="M105.577,71.27c3.419-3.072,6.67-6.178,10.116-9.049a35.18,35.18,0,0,1,18.9-7.856c6.737-.783,13.441-.789,20,1.127,11.494,3.359,18.518,11.08,21.59,22.537a59.781,59.781,0,0,1,1.98,15.487q.036,33.227.01,66.453v1.274H137.806v-1.483q0-28.549-.028-57.1a28.406,28.406,0,0,0-.656-7.223C134,83.819,121.685,82.814,114.839,89.08c-3.4,3.109-4.682,7.206-5.245,11.576a53.056,53.056,0,0,0-.381,6.656q-.044,26.18-.016,52.361v1.58H68.748V159.76q0-28.61-.016-57.221A43.266,43.266,0,0,0,68.36,96c-1.354-8.769-10.3-13.26-18.542-9.363-4.949,2.34-7.561,6.5-8.534,11.682a52.021,52.021,0,0,0-.942,9.272c-.087,17.331-.042,34.664-.042,52v1.648H0V56.439H37.542V71.46c1.032-1.129,1.824-2.019,2.64-2.885,5.116-5.42,10.811-10.015,18.012-12.4A52.454,52.454,0,0,1,78.24,54.044a35.4,35.4,0,0,1,13.383,3.164c5.892,2.855,10.115,7.446,13.339,13.042.219.379.452.751.614,1.019" transform="translate(0 -16.517)"/>
    <path id="パス_9" data-name="パス 9" d="M597.757,161.242H557.189v-1.591c0-18.909.039-37.818-.043-56.725a34.6,34.6,0,0,0-.988-8.032c-1.45-5.895-5.945-9.261-12.016-9.366-8.6-.148-14.269,4.491-16.09,13.549A55.124,55.124,0,0,0,527,109.556c-.105,16.721-.047,33.444-.047,50.165v1.5H486.713V56.4h37.371V72.876l.249.137c.3-.334.612-.658.9-1a59.342,59.342,0,0,1,12.9-11.894A38.445,38.445,0,0,1,555.669,54.2c6.532-.662,13.045-.545,19.366,1.472,11.484,3.664,18.2,11.693,21.017,23.222a62.977,62.977,0,0,1,1.693,14.917q.041,33.282.012,66.563Z" transform="translate(-149.231 -16.507)"/>
    <path id="パス_10" data-name="パス 10" d="M290.969,56.887h40.568v1.438c0,19.151-.035,38.3.042,57.454a33.606,33.606,0,0,0,.965,7.552c1.4,5.906,5.969,9.395,12.058,9.5,8.459.15,14.348-4.655,16.049-13.485a61.756,61.756,0,0,0,1.107-11.2c.116-16.56.051-33.121.051-49.681v-1.6H402V161.711H364.51v-16.24l-.257-.137c-.268.3-.544.595-.8.9-3.658,4.361-7.668,6.955-12.417,10.145-6.749,4.533-14.336,5.492-22.317,5.752a43.333,43.333,0,0,1-15.929-2.052c-10.653-3.736-17.039-11.333-19.9-22.093a45.214,45.214,0,0,1-1.9-13.294q-.067-33.221-.019-66.444Z" transform="translate(-89.211 -17.437)"/>
    <path id="パス_11" data-name="パス 11" d="M1024.731,50.245c11.772.037,21.275,1.161,30.273,4.892,17.364,7.2,27.777,20.174,31.216,38.582a57.822,57.822,0,0,1-2.8,32.587c-6.2,15.515-17.579,25.6-33.46,30.611-9.429,2.977-19.143,3.591-28.953,3.041-8.309-.466-16.422-1.98-23.948-5.636-17.012-8.265-27.388-21.6-29.974-40.494-1.715-12.532-.186-24.676,6.171-35.822,7.826-13.724,19.726-22.109,35.022-25.771a71.252,71.252,0,0,1,16.447-1.989m21.916,55.049c0-.89.023-1.78,0-2.668a35.447,35.447,0,0,0-2.476-12.79c-3.87-9.219-13.031-13.83-22.369-11.09-7.111,2.087-11.336,7.16-13.281,14.093a48.319,48.319,0,0,0-.239,24.494,20.87,20.87,0,0,0,6.93,11.423,18.524,18.524,0,0,0,29.2-8.308c1.828-4.888,2.237-10,2.241-15.153" transform="translate(-296.318 -15.404)"/>
    <path id="パス_12" data-name="パス 12" d="M891.211,86.213,853.3,91.323c-.6-1.485-1.073-2.943-1.747-4.305a15.378,15.378,0,0,0-10.284-8.4,25.044,25.044,0,0,0-13.441-.055,19.527,19.527,0,0,0-13.595,12.8,41.871,41.871,0,0,0-.665,27.059c3.053,9.774,12.094,15.324,22.3,14.323,9.421-.923,15.315-6.089,18.442-14.745.417-1.153.832-1.484,2.122-1.322,7.389.929,14.8,1.724,22.2,2.564q6.758.769,13.515,1.542c.315.036.623.121,1.3.257-1.371,3.488-2.482,6.956-4.052,10.2-7.411,15.324-19.824,24.135-36.366,27.363-9.536,1.86-19.167,1.74-28.8,1.044-6.927-.5-13.783-1.494-20.3-3.979-15.139-5.768-25.386-16.305-30.106-31.85-2.316-7.627-2.419-15.558-1.978-23.475C772.2,93.767,773.2,87.267,776,81.258c7.051-15.125,18.744-24.8,34.975-28.8,9.479-2.335,19.158-2.526,28.858-2.066a82.529,82.529,0,0,1,19.731,3.157c14.006,4.166,23.548,13.261,29.305,26.515.849,1.955,1.524,3.986,2.342,6.148" transform="translate(-236.589 -15.39)"/>
    <rect id="長方形_198" data-name="長方形 198" width="40.152" height="104.859" transform="translate(474.141 39.876)"/>
    <rect id="長方形_199" data-name="長方形 199" width="40.142" height="27.105" transform="translate(474.16)"/>
  </g>
</svg>
