<svg id="logo" xmlns="http://www.w3.org/2000/svg" xmlns:xlink="http://www.w3.org/1999/xlink" width="235.013" height="43" viewBox="0 0 235.013 43">
  <defs>
    <clipPath id="clip-path">
      <rect id="長方形_197" data-name="長方形 197" width="235.013" height="43" fill="none"/>
    </clipPath>
  </defs>
  <g id="グループ_101" data-name="グループ 101" clip-path="url(#clip-path)">
    <path id="パス_3" data-name="パス 3" d="M31.366,59.04c1.016-.913,1.982-1.835,3.005-2.688a10.452,10.452,0,0,1,5.615-2.334,14.841,14.841,0,0,1,5.941.335,8.907,8.907,0,0,1,6.414,6.7,17.76,17.76,0,0,1,.588,4.6q.011,9.871,0,19.743v.378H40.941V85.33q0-8.482-.008-16.964a8.439,8.439,0,0,0-.195-2.146,3.931,3.931,0,0,0-6.62-1.889,5.33,5.33,0,0,0-1.558,3.439,15.762,15.762,0,0,0-.113,1.977q-.013,7.778,0,15.556v.469H20.425V85.33q0-8.5,0-17a12.854,12.854,0,0,0-.111-1.942A3.767,3.767,0,0,0,14.8,63.607a4.513,4.513,0,0,0-2.535,3.471,15.455,15.455,0,0,0-.28,2.755c-.026,5.149-.013,10.3-.013,15.448v.489H0V54.634H11.153V59.1c.307-.335.542-.6.784-.857a13.07,13.07,0,0,1,5.351-3.685,15.584,15.584,0,0,1,5.956-.632,10.516,10.516,0,0,1,3.976.94,9.225,9.225,0,0,1,3.963,3.875c.065.113.134.223.183.3" transform="translate(0 -42.774)"/>
    <path id="パス_4" data-name="パス 4" d="M519.7,85.747H507.651v-.473c0-5.618.012-11.235-.013-16.853a10.279,10.279,0,0,0-.294-2.386,3.516,3.516,0,0,0-3.57-2.783c-2.555-.044-4.239,1.334-4.78,4.025a16.374,16.374,0,0,0-.311,3.113c-.031,4.968-.014,9.936-.014,14.9v.447H486.713V54.6h11.1v4.894l.074.041c.089-.1.182-.2.267-.3a17.628,17.628,0,0,1,3.832-3.534,11.422,11.422,0,0,1,5.21-1.758,14.05,14.05,0,0,1,5.754.437,8.952,8.952,0,0,1,6.244,6.9,18.714,18.714,0,0,1,.5,4.432q.012,9.888,0,19.776Z" transform="translate(-386.449 -42.747)"/>
    <path id="パス_5" data-name="パス 5" d="M290.964,56.875h12.053V57.3c0,5.69-.011,11.38.013,17.069a9.986,9.986,0,0,0,.287,2.244,3.546,3.546,0,0,0,3.582,2.823,4.5,4.5,0,0,0,4.768-4.006,18.352,18.352,0,0,0,.329-3.327c.034-4.92.015-9.84.015-14.76V56.87H323.95V88.018H312.812V83.193l-.076-.041c-.08.089-.162.177-.239.268a16.025,16.025,0,0,1-3.689,3.014,12.079,12.079,0,0,1-6.63,1.709,12.874,12.874,0,0,1-4.732-.61,8.932,8.932,0,0,1-5.913-6.564,13.435,13.435,0,0,1-.564-3.949q-.02-9.87-.006-19.74Z" transform="translate(-231.023 -45.155)"/>
    <path id="パス_6" data-name="パス 6" d="M983.756,50.242A22.943,22.943,0,0,1,992.75,51.7a14.64,14.64,0,0,1,9.274,11.463,17.179,17.179,0,0,1-.83,9.681,15.055,15.055,0,0,1-9.941,9.094,23.855,23.855,0,0,1-8.6.9,18.432,18.432,0,0,1-7.115-1.674,15.026,15.026,0,0,1-8.905-12.031,16.433,16.433,0,0,1,1.833-10.643,15.64,15.64,0,0,1,10.4-7.657,21.169,21.169,0,0,1,4.886-.591M990.267,66.6c0-.264.007-.529,0-.793a10.528,10.528,0,0,0-.736-3.8,5.428,5.428,0,0,0-6.646-3.295,5.638,5.638,0,0,0-3.946,4.187,14.357,14.357,0,0,0-.071,7.277,6.2,6.2,0,0,0,2.059,3.394A5.5,5.5,0,0,0,989.6,71.1a12.71,12.71,0,0,0,.666-4.5" transform="translate(-767.348 -39.891)"/>
    <path id="パス_7" data-name="パス 7" d="M807.158,60.894l-11.264,1.518c-.177-.441-.319-.874-.519-1.279a4.569,4.569,0,0,0-3.055-2.495,7.441,7.441,0,0,0-3.993-.016,5.8,5.8,0,0,0-4.039,3.8,12.44,12.44,0,0,0-.2,8.039,6.388,6.388,0,0,0,12.105-.125c.124-.343.247-.441.63-.393,2.2.276,4.4.512,6.594.762q2.008.228,4.015.458c.094.011.185.036.387.076-.407,1.036-.737,2.067-1.2,3.031a14.378,14.378,0,0,1-10.8,8.129,32.3,32.3,0,0,1-8.558.31,21.042,21.042,0,0,1-6.031-1.182,14.11,14.11,0,0,1-8.944-9.463,19.986,19.986,0,0,1-.588-6.974,15.257,15.257,0,0,1,1.237-5.673,14.9,14.9,0,0,1,10.391-8.556,29.714,29.714,0,0,1,8.573-.614,24.519,24.519,0,0,1,5.862.938,13.287,13.287,0,0,1,8.707,7.877c.252.581.453,1.184.7,1.826" transform="translate(-612.673 -39.853)"/>
    <rect id="長方形_195" data-name="長方形 195" width="11.929" height="31.153" transform="translate(140.865 11.847)"/>
    <rect id="長方形_196" data-name="長方形 196" width="11.926" height="8.053" transform="translate(140.871)"/>
  </g>
</svg>
