<svg xmlns="http://www.w3.org/2000/svg" width="30.005" height="28.732" viewBox="0 0 30.005 28.732">
  <g id="Icon_feather-shopping-cart" data-name="Icon feather-shopping-cart" transform="translate(-0.5 -0.5)">
    <path id="パス_8" data-name="パス 8" d="M14.546,31.273A1.273,1.273,0,1,1,13.273,30,1.273,1.273,0,0,1,14.546,31.273Z" transform="translate(-1.589 -4.314)" fill="none" stroke="#fff" stroke-linecap="round" stroke-linejoin="round" stroke-width="2"/>
    <path id="パス_9" data-name="パス 9" d="M31.046,31.273A1.273,1.273,0,1,1,29.773,30,1.273,1.273,0,0,1,31.046,31.273Z" transform="translate(-4.087 -4.314)" fill="none" stroke="#fff" stroke-linecap="round" stroke-linejoin="round" stroke-width="2"/>
    <path id="パス_10" data-name="パス 10" d="M1.5,1.5H6.592L10,18.545a2.546,2.546,0,0,0,2.546,2.049H24.922a2.546,2.546,0,0,0,2.546-2.049L29.5,7.865H7.865" fill="none" stroke="#fff" stroke-linecap="round" stroke-linejoin="round" stroke-width="2"/>
  </g>
</svg>
